<svg width="14" height="16.781" fill="none" xmlns="http://www.w3.org/2000/svg"><path d="M6.895 8.083A3.91 3.91 0 0 0 9.752 6.9a3.908 3.908 0 0 0 1.183-2.858 3.91 3.91 0 0 0-1.183-2.857A3.912 3.912 0 0 0 6.895 0a3.908 3.908 0 0 0-2.858 1.184 3.91 3.91 0 0 0-1.184 2.857A3.91 3.91 0 0 0 4.037 6.9a3.91 3.91 0 0 0 2.858 1.184zM13.966 12.903a9.927 9.927 0 0 0-.136-1.06 8.486 8.486 0 0 0-.26-1.066 5.245 5.245 0 0 0-.44-.994 3.77 3.77 0 0 0-.66-.861c-.261-.25-.58-.45-.95-.597a3.277 3.277 0 0 0-1.211-.22c-.171 0-.337.071-.657.28-.197.128-.427.276-.684.44-.22.14-.518.272-.886.39A3.51 3.51 0 0 1 7 9.392c-.36 0-.725-.06-1.083-.175a3.88 3.88 0 0 1-.885-.39 98.272 98.272 0 0 1-.685-.442c-.32-.208-.486-.278-.657-.278-.436 0-.843.074-1.211.22-.37.145-.689.346-.95.596-.25.238-.471.528-.66.86-.182.322-.33.656-.44.995a9.929 9.929 0 0 0-.396 2.127c-.021.32-.033.654-.033.99 0 .877.278 1.586.827 2.109.543.516 1.26.778 2.133.778h8.08c.872 0 1.59-.262 2.132-.778.55-.523.828-1.232.828-2.108 0-.339-.012-.672-.034-.992z" fill="#FFF"/></svg>