<svg width="16.322" height="16" fill="none" xmlns="http://www.w3.org/2000/svg"><path d="M13.058 12.8c-.906 0-1.632.712-1.632 1.6 0 .424.172.831.478 1.131.306.3.72.469 1.154.469a1.65 1.65 0 0 0 1.154-.469c.306-.3.478-.707.478-1.131 0-.424-.172-.831-.478-1.131a1.65 1.65 0 0 0-1.154-.469zM0 0v1.6h1.632L4.57 7.672l-1.11 1.96a1.584 1.584 0 0 0 .282 1.9c.307.3.722.468 1.155.468h9.793v-1.6H5.24a.206.206 0 0 1-.145-.059.198.198 0 0 1-.06-.141c0-.04.009-.072.025-.096L5.794 8.8h6.08c.612 0 1.151-.336 1.429-.824L16.224 2.8a.994.994 0 0 0 .098-.4.792.792 0 0 0-.239-.566.824.824 0 0 0-.577-.234H3.436L2.669 0H0zm4.897 12.8c-.906 0-1.633.712-1.633 1.6 0 .424.172.831.479 1.131.306.3.72.469 1.154.469a1.65 1.65 0 0 0 1.154-.469c.306-.3.478-.707.478-1.131 0-.424-.172-.831-.478-1.131a1.65 1.65 0 0 0-1.154-.469z" fill="#000"/></svg>