<svg width="14" height="13.975" viewBox="0 0 14 13.976" fill="none" xmlns="http://www.w3.org/2000/svg"><path d="M13.087 2.715h-1.02a1.62 1.62 0 0 0 .25-.704A1.796 1.796 0 0 0 11.247.159a1.788 1.788 0 0 0-1.95.314L8.01 1.64a1.368 1.368 0 0 0-2.023.002L4.7.473A1.79 1.79 0 0 0 2.75.159 1.796 1.796 0 0 0 1.68 2.011c.025.252.114.491.248.704H.913A.913.913 0 0 0 0 3.628v1.37c0 .251.204.456.456.456h13.088A.456.456 0 0 0 14 4.997v-1.37a.913.913 0 0 0-.913-.912zM5.63 2.562v.153H3.482a.9.9 0 0 1-.872-1.12A.895.895 0 0 1 3.104 1a.879.879 0 0 1 .983.149L5.63 2.549v.013zm5.78-.673c-.035.475-.464.826-.94.826H8.37V2.546L9.89 1.17c.234-.212.561-.311.864-.221.434.13.69.498.657.941zM.913 6.367v6.695c0 .505.41.914.913.914h4.26v-7.61H.914zM7.913 6.367v7.609h4.26a.913.913 0 0 0 .914-.914V6.367H7.913z" fill="#000"/></svg>