<svg width="14.029" height="14.029" fill="none" xmlns="http://www.w3.org/2000/svg"><path d="M7.015 1.259a21.44 21.44 0 0 1 2.8.078c.45-.006.9.073 1.322.233.582.271 1.05.74 1.322 1.322.16.422.24.87.234 1.323 0 .7.078.932.078 2.8.034.933.008 1.869-.079 2.8.006.45-.073.9-.232 1.322a2.732 2.732 0 0 1-1.323 1.322 3.61 3.61 0 0 1-1.321.233c-.7 0-.933.078-2.8.078-.934.034-1.87.009-2.8-.078a3.61 3.61 0 0 1-1.322-.233 2.732 2.732 0 0 1-1.322-1.322c-.16-.423-.24-.87-.235-1.323 0-.7-.078-.932-.078-2.8-.035-.933-.01-1.869.078-2.8-.006-.45.073-.9.233-1.321.135-.289.32-.552.545-.778.182-.272.46-.466.778-.544a3.6 3.6 0 0 1 1.322-.234 21.44 21.44 0 0 1 2.8-.078zm0-1.244a22.97 22.97 0 0 0-2.878.078 4.797 4.797 0 0 0-1.711.31 3.044 3.044 0 0 0-1.244.779 3.044 3.044 0 0 0-.778 1.244 3.544 3.544 0 0 0-.311 1.71 22.978 22.978 0 0 0-.078 2.879c-.035.96-.009 1.92.078 2.878a4.8 4.8 0 0 0 .31 1.71c.155.472.422.9.779 1.245.345.356.772.623 1.244.777a4.797 4.797 0 0 0 1.71.312c.957.086 1.919.112 2.879.078.96.034 1.92.008 2.878-.079a4.796 4.796 0 0 0 1.71-.31 3.262 3.262 0 0 0 2.023-2.022 4.8 4.8 0 0 0 .31-1.711c0-.779.079-1.011.079-2.878.034-.96.008-1.922-.078-2.879a4.801 4.801 0 0 0-.311-1.71 3.044 3.044 0 0 0-.778-1.244 3.045 3.045 0 0 0-1.245-.778 4.796 4.796 0 0 0-1.71-.311A22.97 22.97 0 0 0 7.015.015zm0 3.422a3.521 3.521 0 0 0-3.578 3.578 3.578 3.578 0 1 0 3.578-3.578zm0 5.91a2.296 2.296 0 0 1-2.167-1.433 2.29 2.29 0 0 1-.166-.9 2.292 2.292 0 0 1 2.333-2.332A2.287 2.287 0 0 1 9.18 6.115c.116.286.172.592.167.9a2.29 2.29 0 0 1-2.333 2.333zm3.733-6.921a.857.857 0 1 0 .856.855.863.863 0 0 0-.856-.855z" fill="#ED165F" fill-rule="evenodd"/></svg>