<svg width="16" height="14.235" fill="none" xmlns="http://www.w3.org/2000/svg"><path d="M7.327 1.16a4.782 4.782 0 0 0-.343-.292A4.025 4.025 0 0 0 4.47 0a4.303 4.303 0 0 0-3.2 1.393C.45 2.281 0 3.493 0 4.808 0 6.162.504 7.4 1.587 8.707c.968 1.168 2.36 2.354 3.972 3.728.55.47 1.175 1.001 1.822 1.567a.938.938 0 0 0 1.237 0c.648-.566 1.272-1.098 1.823-1.567 1.612-1.374 3.004-2.56 3.972-3.728C15.496 7.4 16 6.162 16 4.808c0-1.314-.45-2.527-1.27-3.415A4.302 4.302 0 0 0 11.53 0c-.923 0-1.769.292-2.514.868a4.78 4.78 0 0 0-.343.292A5.333 5.333 0 0 0 8 1.93a5.331 5.331 0 0 0-.673-.77zm3.318-.033Q11.069 1 11.53 1q.515 0 .987.142.187.056.367.135.235.102.45.238.36.23.662.556.087.095.167.196.36.452.572 1.022l.026.073Q15 4.043 15 4.808q0 .325-.05.643-.074.482-.264.947-.329.81-1.043 1.67-.606.732-1.65 1.688-.657.603-2.2 1.918l-.002.001-.002.002-.003.003-.004.002-.001.002-.002.001q-1.135.968-1.779 1.53-.648-.566-1.79-1.54h-.002q-1.543-1.316-2.2-1.918Q2.962 8.8 2.356 8.069q-.714-.862-1.043-1.67-.19-.467-.265-.95Q1 5.131 1 4.808q0-.766.239-1.448l.026-.072q.212-.571.573-1.024.08-.1.166-.194.3-.326.662-.556.214-.136.45-.238.18-.079.367-.135Q3.955 1 4.47 1q.462 0 .886.128.539.162 1.016.53.45.35.818.857L8 3.635l.81-1.12q.367-.508.818-.856.477-.37 1.017-.532z" fill="#ED165F" fill-rule="evenodd"/></svg>