<svg width="16.322" height="14.235" fill="none" xmlns="http://www.w3.org/2000/svg"><path d="M15.027 1.393A4.43 4.43 0 0 0 11.763 0a4.16 4.16 0 0 0-2.565.868A5.19 5.19 0 0 0 8.16 1.929 5.187 5.187 0 0 0 7.124.868 4.159 4.159 0 0 0 4.56 0a4.43 4.43 0 0 0-3.265 1.393C.46 2.281 0 3.493 0 4.808 0 6.162.514 7.4 1.619 8.707c.988 1.168 2.408 2.354 4.052 3.728.562.47 1.198 1.001 1.86 1.567a.968.968 0 0 0 1.26 0c.662-.566 1.298-1.098 1.86-1.567 1.644-1.374 3.064-2.56 4.052-3.728 1.105-1.307 1.62-2.545 1.62-3.899 0-1.314-.46-2.527-1.296-3.415z" fill="#000"/></svg>