<svg width="14" height="12.456" fill="none" xmlns="http://www.w3.org/2000/svg"><path d="M12.89 1.219A3.766 3.766 0 0 0 10.089 0c-.808 0-1.548.255-2.2.76-.328.254-.626.565-.889.928a4.496 4.496 0 0 0-.89-.929A3.521 3.521 0 0 0 3.911 0a3.766 3.766 0 0 0-2.8 1.219C.394 1.996 0 3.057 0 4.207c0 1.184.441 2.268 1.389 3.411.847 1.023 2.065 2.06 3.475 3.263.482.41 1.028.876 1.595 1.371a.82.82 0 0 0 1.082 0c.566-.495 1.113-.96 1.595-1.372 1.41-1.201 2.628-2.24 3.475-3.262C13.56 6.475 14 5.391 14 4.208c0-1.15-.395-2.212-1.11-2.99z" fill="#000"/></svg>