<svg width="71.41" height="40.349" fill="none" xmlns="http://www.w3.org/2000/svg"><path d="M9.87 6.607c-.591-.29-4.269 2.408-4.578 2.676-1.36 1.179-3.205 2.939-1.641 4.283 1.592 1.369 4.193 1.828 6.145 2.906 2.04 1.127.238 3.229-.712 4.458-2.387 3.094-4.464 6.391-6.238 9.623-.474.863-3.883 9.728-2.53 9.796-.796-.04 2.706-7.722 3.023-8.223 2.24-3.533 5.368-6.851 8.583-10.11 1.299-1.316 2.637-3.006 2.242-4.57-.404-1.604-3.017-2.435-5.206-3.176-2.89-.98-4.474-1.522-2.96-3.541.333-.441 4.157-3.982 3.871-4.122zM7.336 2.472c.08-.035.123-.195.169-.367.045-.173.093-.355.186-.434.25-.216.474-.298.708-.306.234-.009.481.055.778.13.315.08.579.222.85.358.271.136.55.27.896.332.336.062.636.06.934.044.298-.016.594-.046.925-.045.5.003 1.077.034 1.533.195.456.161.79.455.8.986.01.604-.391.835-.863 1.006-.47.172-1.01.28-1.27.64-.023.03.615.492 1.285.965.671.473 1.377.958 1.492 1.035a9.932 9.932 0 0 0 2.018 1.03c.712.267 1.472.455 2.295.564.767.102 1.384.191 2.207.078.449-.06 1.272-.182 1.995-.67.322-.217.584-.483.786-.685.486-.487.683-.825.731-.807.057.022-.148.539-.518 1.045-.132.18-.412.562-.863.892-.825.601-1.804.722-2.61.82-1.174.146-2.154.051-2.771-.04-1.205-.178-2.389-.396-4.81-1.747-1.495-.835-2.944-1.77-4.531-2.345-.658-.237-2.64-.903-4.331-1.746-1.69-.843-3.09-1.864-2.582-2.815.578-1.08 1.418-.481 2.264.326.845.807 1.696 1.819 2.297 1.561zM25.247 17.481c.227 0 .415.046.56.14.145.093.257.198.332.315a.935.935 0 0 1 .142.372c.018.13.021.24.01.325-.051.236-.165.533-.342.894-.178.36-.384.756-.618 1.19-.234.435-.49.897-.77 1.387-.277.49-.543.97-.797 1.441-.252.472-.481.93-.683 1.376a7.36 7.36 0 0 0-.437 1.191c-.075.285-.066.444.029.475.095.03.268-.04.522-.215.443-.285.911-.66 1.404-1.125.494-.465.983-.962 1.47-1.49a40.79 40.79 0 0 0 1.404-1.6c.449-.54.848-1.029 1.195-1.469.348-.44.636-.805.863-1.097.227-.291.36-.45.4-.475a.364.364 0 0 1 .218-.055c.095 0 .183.022.265.065a.48.48 0 0 1 .19.177c.044.073.041.166-.01.28-.038.073-.157.27-.36.585-.203.316-.474.71-.816 1.181-.342.472-.74.992-1.195 1.563a48.18 48.18 0 0 1-1.471 1.749 30.52 30.52 0 0 1-1.66 1.74 18.423 18.423 0 0 1-1.766 1.516c-.101.062-.25.158-.446.288-.196.13-.427.254-.693.371-.265.119-.55.21-.854.28a2.55 2.55 0 0 1-.892.046.94.94 0 0 1-.54-.26 1.1 1.1 0 0 1-.276-.54 2.494 2.494 0 0 1-.038-.772c.025-.291.076-.606.152-.94a7.86 7.86 0 0 1-1.025.866c-.405.292-.826.552-1.262.782-.437.23-.86.421-1.272.577-.412.156-.762.24-1.053.25-.456.013-.847-.05-1.177-.186a2.21 2.21 0 0 1-.806-.548 2.15 2.15 0 0 1-.456-.772 2.69 2.69 0 0 1-.142-.856c0-.396.064-.853.19-1.368a9.564 9.564 0 0 1 .56-1.6c.247-.55.556-1.098.93-1.637.373-.54.809-1.043 1.31-1.507a8.377 8.377 0 0 1 1.679-1.21c.62-.34 1.31-.58 2.07-.716a4.46 4.46 0 0 1 1.251-.074c.368.038.686.121.958.25.273.132.497.301.675.513.177.211.31.434.399.669.151-.285.288-.533.408-.744.121-.21.219-.372.294-.485.202-.346.412-.598.626-.754.214-.154.415-.26.598-.316.183-.055.342-.078.474-.065.137.015.23.022.28.022zm-8.635 9.805c.214-.012.49-.096.826-.25a5.983 5.983 0 0 0 1.043-.633 8.58 8.58 0 0 0 1.053-.931 6.02 6.02 0 0 0 .873-1.144c.19-.471.395-.949.618-1.433.221-.484.44-.949.654-1.395.077-.372.082-.664.019-.874a1.074 1.074 0 0 0-.276-.484.848.848 0 0 0-.409-.215 1.942 1.942 0 0 0-.36-.046c-.227-.012-.5.084-.816.288a6.63 6.63 0 0 0-1.007.828 14.33 14.33 0 0 0-2.031 2.567c-.29.472-.538.934-.74 1.386-.203.453-.326.853-.37 1.2-.044.348 0 .626.133.837.135.212.398.312.79.3z" fill="#ED165F"/><path d="M34.074 13.034a.85.85 0 0 1 .522.121.935.935 0 0 1 .332.364.927.927 0 0 1 .095.492 1.11 1.11 0 0 1-.152.493 73.488 73.488 0 0 0-1.766 2.948 85.611 85.611 0 0 0-1.916 3.563c.721.1 1.465.174 2.23.223.765.05 1.48.043 2.145-.018.664-.061 1.243-.195 1.737-.4.494-.204.835-.511 1.025-.92.114-.236.255-.391.427-.465.17-.074.325-.084.466-.028a.58.58 0 0 1 .314.308c.07.148.066.322-.01.52-.229.545-.557.99-.987 1.33-.43.34-.914.608-1.452.8a7.272 7.272 0 0 1-1.727.381 13.83 13.83 0 0 1-1.823.066 17.135 17.135 0 0 1-1.699-.131c-.53-.068-.994-.14-1.385-.214-.102.211-.199.419-.294.623a71.53 71.53 0 0 1-.294.623c.126.472.263 1.03.409 1.674.145.646.262 1.353.35 2.12.088.77.14 1.583.152 2.438.013.856-.044 1.731-.17 2.623-.19 1.29-.443 2.385-.76 3.284-.316.899-.664 1.638-1.043 2.214-.379.576-.772 1.022-1.176 1.34-.405.316-.791.545-1.159.688a3.422 3.422 0 0 1-1.689.233 2.672 2.672 0 0 1-1.328-.576 3.37 3.37 0 0 1-.912-1.191 5.104 5.104 0 0 1-.437-1.656 7.05 7.05 0 0 1 .095-1.972 20.69 20.69 0 0 1 .721-2.688c.33-.986.719-2.019 1.167-3.097a85.94 85.94 0 0 1 1.452-3.284 100.78 100.78 0 0 1 1.576-3.228c-.443-.484-.823-.737-1.139-.762-.201-.013-.29-.103-.265-.27.026-.167.114-.351.265-.549.152-.199.333-.38.541-.548.209-.167.39-.25.541-.25.026 0 .142.025.35.073.21.05.478.106.807.168.379-.732.744-1.417 1.091-2.056a163.227 163.227 0 0 1 1.643-2.95l.379-.669c.164-.297.373-.555.626-.772.252-.217.515-.397.787-.54a4.992 4.992 0 0 1 1.337-.476zm-4.575 19.164c.126-1.229.12-2.375-.019-3.442a15.403 15.403 0 0 0-.646-2.903 130 130 0 0 0-1.413 3.2 60.295 60.295 0 0 0-1.195 3.014c-.348.955-.64 1.84-.873 2.652-.235.813-.392 1.52-.475 2.12-.082.602-.075 1.08.019 1.433.095.353.3.548.617.585.696.076 1.265-.086 1.708-.482.443-.397.806-.928 1.091-1.59.286-.664.516-1.402.693-2.214.176-.813.34-1.605.493-2.373z" fill="#ED165F"/><path d="M46.979 17.481c.227 0 .414.046.56.14.144.093.256.198.331.315a.935.935 0 0 1 .142.372c.019.13.021.24.01.325-.051.236-.164.533-.342.894-.177.36-.383.756-.617 1.19-.235.435-.492.897-.77 1.387s-.543.97-.797 1.441c-.253.472-.482.93-.683 1.376a7.37 7.37 0 0 0-.437 1.191c-.076.285-.067.444.028.475.095.03.268-.04.522-.215.443-.285.912-.66 1.404-1.125.494-.465.984-.962 1.47-1.49.488-.527.956-1.06 1.405-1.6.448-.54.847-1.029 1.195-1.469.347-.44.636-.805.863-1.097.227-.291.36-.45.399-.475a.364.364 0 0 1 .218-.055c.095 0 .183.022.266.065a.48.48 0 0 1 .19.177c.044.073.04.166-.01.28-.038.073-.158.27-.36.585-.204.316-.475.71-.817 1.181-.342.472-.74.992-1.195 1.563-.456.57-.947 1.153-1.47 1.749a30.523 30.523 0 0 1-1.661 1.74 18.422 18.422 0 0 1-1.766 1.516c-.1.062-.25.158-.446.288-.196.13-.427.254-.692.371-.266.119-.551.21-.855.28a2.55 2.55 0 0 1-.891.046.94.94 0 0 1-.541-.26 1.1 1.1 0 0 1-.276-.54 2.494 2.494 0 0 1-.038-.772c.026-.291.077-.606.152-.94a7.86 7.86 0 0 1-1.025.866c-.404.292-.826.552-1.262.782-.437.23-.86.421-1.271.577-.412.156-.763.24-1.054.25-.455.013-.847-.05-1.176-.186a2.211 2.211 0 0 1-.807-.548 2.15 2.15 0 0 1-.455-.772 2.69 2.69 0 0 1-.142-.856c0-.396.064-.853.19-1.368a9.574 9.574 0 0 1 .56-1.6c.246-.55.556-1.098.929-1.637.373-.54.81-1.043 1.31-1.507a8.38 8.38 0 0 1 1.68-1.21c.62-.34 1.31-.58 2.069-.716a4.458 4.458 0 0 1 1.252-.074c.367.038.685.121.958.25.272.132.497.301.674.513.178.211.31.434.399.669.152-.285.288-.533.409-.744.12-.21.218-.372.294-.485.201-.346.411-.598.626-.754.214-.154.414-.26.597-.316.183-.055.342-.078.474-.065.138.015.23.022.28.022zm-8.636 9.805c.214-.012.49-.096.826-.25a5.983 5.983 0 0 0 1.044-.633 8.58 8.58 0 0 0 1.053-.931c.342-.353.633-.735.873-1.144.19-.471.394-.949.617-1.433.221-.484.44-.949.654-1.395.077-.372.083-.664.019-.874a1.073 1.073 0 0 0-.276-.484.847.847 0 0 0-.408-.215 1.942 1.942 0 0 0-.36-.046c-.228-.012-.5.084-.817.288a6.63 6.63 0 0 0-1.006.828 14.33 14.33 0 0 0-2.031 2.567c-.291.472-.538.934-.74 1.386-.203.453-.327.853-.37 1.2-.045.348 0 .626.133.837.135.212.397.312.79.3z" fill="#ED165F"/><path d="M51.82 16.123c.264-.012.483.043.654.167.17.124.255.329.255.614 0 .136-.047.328-.142.577-.095.248-.193.497-.294.745-.139.285-.285.588-.437.911.088.136.31.202.664.195.354-.006.76-.046 1.215-.121.456-.075.924-.155 1.404-.242a12.21 12.21 0 0 1 1.234-.167c.265-.013.468.04.607.158.14.119.234.265.286.437.05.174.06.356.028.548-.031.192-.092.351-.18.475-.051.074-.178.288-.38.641-.202.354-.432.782-.692 1.285-.26.502-.52 1.039-.778 1.61-.26.57-.466 1.1-.617 1.59-.152.49-.225.908-.219 1.256.006.348.15.54.427.578.152.025.412-.087.778-.336a14.04 14.04 0 0 0 1.282-1.004 25.746 25.746 0 0 0 1.547-1.47 45.425 45.425 0 0 0 1.586-1.711c.512-.583.98-1.159 1.403-1.73.425-.571.757-1.086.997-1.545a.497.497 0 0 1 .294-.252.683.683 0 0 1 .399-.01c.133.036.24.118.322.242.082.124.105.298.066.52-.012.063-.116.251-.313.568-.196.316-.459.71-.788 1.181-.33.472-.721.995-1.177 1.573a34.966 34.966 0 0 1-1.47 1.74 24.548 24.548 0 0 1-1.661 1.673c-.582.533-1.171.99-1.766 1.368a7.332 7.332 0 0 1-1.774.837c-.59.18-1.155.208-1.7.084-.519-.124-.913-.329-1.186-.614a1.996 1.996 0 0 1-.522-1.023 3.78 3.78 0 0 1 0-1.302c.075-.472.193-.942.35-1.413.158-.472.345-.934.56-1.386a20.35 20.35 0 0 1 1.148-2.103 7.89 7.89 0 0 1 .275-.419c.14-.174.155-.303.047-.39-.108-.087-.25-.1-.427-.038a3.83 3.83 0 0 1-.788.186c-.335.05-.671.03-1.006-.055a1.753 1.753 0 0 1-.883-.558c-.253-.285-.386-.725-.399-1.32a2.4 2.4 0 0 1 .085-.708c.07-.285.18-.56.332-.828.152-.267.338-.499.56-.697.227-.199.49-.304.793-.317z" fill="#ED165F"/><path d="M64.06 18.913c.229.012.418.063.57.149a.931.931 0 0 1 .484.697c.018.13.022.24.01.325-.076.336-.266.785-.57 1.349a71.08 71.08 0 0 1-1.006 1.804 43.758 43.758 0 0 0-1.053 1.944c-.335.658-.572 1.247-.712 1.767-.076.286-.035.434.124.447.158.012.363-.063.617-.223.43-.285.93-.666 1.5-1.143.569-.478 1.15-.992 1.745-1.545.595-.55 1.18-1.107 1.756-1.665a83.496 83.496 0 0 0 1.547-1.535l1.13-1.154c.297-.303.466-.467.503-.492a.363.363 0 0 1 .218-.056c.095 0 .183.023.266.066a.481.481 0 0 1 .19.176c.044.075.041.167-.01.28-.038.074-.196.277-.474.605-.278.329-.639.74-1.082 1.229a70.9 70.9 0 0 1-3.36 3.452c-.633.608-1.279 1.2-1.936 1.777a32.147 32.147 0 0 1-1.879 1.534c-.088.063-.234.16-.437.288-.203.131-.433.255-.693.372-.26.118-.54.214-.844.288a2.522 2.522 0 0 1-.912.056c-.468-.063-.756-.313-.863-.754-.108-.44-.098-.98.029-1.619.126-.638.337-1.335.636-2.092.296-.757.61-1.482.94-2.176.328-.695.64-1.315.939-1.86.297-.546.515-.937.654-1.172.203-.336.412-.583.626-.745.215-.161.415-.27.598-.325.183-.056.342-.078.474-.066.133.011.226.017.275.017zm.247-3.125c.114-.224.25-.416.408-.578.157-.161.325-.285.502-.371.177-.086.36-.136.55-.149.191-.012.367.018.532.093.164.087.3.208.408.363.108.156.18.329.22.52.037.193.04.401.009.624a2.11 2.11 0 0 1-.219.67c-.113.223-.25.415-.407.577a1.857 1.857 0 0 1-.502.371c-.178.087-.361.137-.551.15a1.081 1.081 0 0 1-.531-.094c-.33-.161-.535-.452-.617-.875-.083-.42-.016-.854.198-1.301z" fill="#ED165F"/></svg>