<svg width="16" height="15.642" fill="none" xmlns="http://www.w3.org/2000/svg"><path d="M11.207 3.48V.782A.784.784 0 0 0 10.426 0H.782A.784.784 0 0 0 0 .782V11.833c0 .287.169.56.417.69L6.359 15.6c.261.13.574-.052.574-.351V12.25h3.493c.43 0 .781-.351.781-.782V7.194H9.644v3.101c0 .222-.17.391-.391.391H6.946V4.053c0-.287-.17-.56-.417-.69L3.023 1.563h6.23c.222 0 .39.17.39.39v1.539h1.564V3.48z" fill="#ED165F"/><path d="m13.215 2.202 2.54 2.542a.78.78 0 0 1 0 1.133l-2.54 2.542c-.326.325-.821.339-1.147.013-.313-.313-.274-.834.026-1.147L13.24 6.15H8.797a.768.768 0 0 1-.586-.26c-.365-.391-.274-1.082.195-1.343a.835.835 0 0 1 .39-.104h4.445S12.107 3.31 12.094 3.31c-.3-.3-.34-.834-.026-1.134.313-.312.82-.3 1.147.026z" fill="#ED165F"/></svg>