<svg width="14" height="16.072" fill="none" xmlns="http://www.w3.org/2000/svg"><path d="M1.005 5.054H.47a.47.47 0 0 0 0 .942h.534v-.942zM1.005 12.587H.47a.47.47 0 0 0 0 .942h.534v-.942zM1.005 10.076H.47a.47.47 0 0 0 0 .942h.534v-.942zM1.005 7.565H.47a.47.47 0 0 0 0 .942h.534v-.942zM1.005 2.543H.47a.47.47 0 0 0 0 .941h.534v-.941zM4.019 0H2.417c-.778 0-1.412.634-1.412 1.413v1.13H2.48a.47.47 0 0 1 0 .941H1.005v1.57H2.48a.47.47 0 0 1 0 .942H1.005v1.569H2.48a.47.47 0 0 1 0 .942H1.005v1.57H2.48a.47.47 0 0 1 0 .94H1.005v1.57H2.48a.47.47 0 0 1 0 .942H1.005v1.13c0 .78.634 1.413 1.412 1.413h1.602V0zM7.941 3.484h2.135v1.068H7.941V3.484z" fill="#000"/><path d="M12.588 0H4.96v16.072h7.628c.778 0 1.412-.634 1.412-1.413V1.413C14 .633 13.366 0 12.588 0zm-1.57 5.022c0 .26-.21.471-.47.471H7.47A.47.47 0 0 1 7 5.023v-2.01c0-.26.21-.47.47-.47h3.078c.26 0 .47.21.47.47v2.01z" fill="#000"/></svg>