<svg width="16.322" height="16" fill="none" xmlns="http://www.w3.org/2000/svg"><path d="M6.063 0c1.607 0 3.15.626 4.286 1.74a5.884 5.884 0 0 1 1.776 4.203c0 1.472-.55 2.825-1.455 3.867l.252.247h.737l4.663 4.572L14.923 16l-4.663-4.571v-.723l-.252-.247a6.15 6.15 0 0 1-3.945 1.427 6.125 6.125 0 0 1-4.287-1.74A5.884 5.884 0 0 1 0 5.942C0 4.367.639 2.855 1.776 1.74A6.125 6.125 0 0 1 6.063 0zm0 1.829c-2.332 0-4.198 1.828-4.198 4.114 0 2.286 1.866 4.114 4.197 4.114 2.332 0 4.198-1.828 4.198-4.114 0-2.286-1.866-4.114-4.197-4.114z" fill="#000"/></svg>