<svg width="14" height="11.356" fill="none" xmlns="http://www.w3.org/2000/svg"><path d="M4.433 11.356a8.1 8.1 0 0 0 7.565-5.03 8.093 8.093 0 0 0 .602-3.137V2.8A6.322 6.322 0 0 0 14 1.322a6.448 6.448 0 0 1-1.633.467A3.026 3.026 0 0 0 13.611.233a7.13 7.13 0 0 1-1.789.7A2.777 2.777 0 0 0 9.722 0a2.922 2.922 0 0 0-2.878 2.878c-.018.21.009.423.078.622A8.039 8.039 0 0 1 1.011.467c-.256.45-.39.96-.389 1.478a3.09 3.09 0 0 0 1.244 2.411 2.621 2.621 0 0 1-1.322-.389 2.843 2.843 0 0 0 2.333 2.8 2.403 2.403 0 0 1-.778.078 1.327 1.327 0 0 1-.544-.078A2.946 2.946 0 0 0 4.277 8.79 5.873 5.873 0 0 1 .7 10.033a2.157 2.157 0 0 1-.7-.078 7.34 7.34 0 0 0 4.433 1.4v.001z" fill="#ED165F" fill-rule="evenodd"/></svg>